<?xml version="1.0" encoding="UTF-8"?>
<svg width="43px" height="50px" viewBox="0 0 43 50" version="1.1" xmlns="http://www.w3.org/2000/svg" xmlns:xlink="http://www.w3.org/1999/xlink">
    <title>D070C1DC-0682-4DC5-A7A5-79AFB0025172</title>
    <g id="Page" stroke="none" stroke-width="1" fill="none" fill-rule="evenodd">
        <g id="01.01.01_Homepage_D" transform="translate(-1045.000000, -732.000000)" fill="#FFE000" fill-rule="nonzero">
            <g id="Group-10" transform="translate(230.000000, 704.000000)">
                <g id="Banner" transform="translate(700.000000, 0.000000)">
                    <path d="M140.578889,20.7046068 C141.656135,21.7818531 141.742867,23.4745259 140.839085,24.6508716 L148.924747,37.9369022 C155.713561,39.2310347 160.936249,41.9129047 161.234003,45.9825122 L161.247413,46.3515765 L161.247413,46.3515765 C161.247413,58.352514 151.851833,68.1589961 140.015237,68.816458 L134.7721,82.2132257 C134.570848,82.7275368 133.990769,82.9813213 133.476458,82.7800691 C133.347984,82.7297968 133.231303,82.6534851 133.133751,82.5559331 L120.047174,69.4693563 C119.656649,69.078832 119.656649,68.445667 120.047174,68.0551427 C120.196615,67.905701 120.389562,67.8074481 120.598318,67.7744866 L128.709318,66.4938003 C121.321373,62.8047953 116.247413,55.1707293 116.247413,46.3515765 C116.247413,41.5566169 122.947667,38.6118815 131.177341,37.51737 L137.208162,25.5542728 C136.89227,25.4096648 136.596324,25.207323 136.336248,24.9472475 C135.164675,23.7756747 135.164675,21.8761797 136.336248,20.7046068 C137.507821,19.533034 139.407316,19.533034 140.578889,20.7046068 Z M132.085122,67.9849794 L122.850308,69.4430335 L133.466809,80.0595348 L137.818344,68.9395735 L136.775763,68.7663811 C135.589872,68.663429 134.430315,68.4684842 133.304268,68.1887208 L132.085122,67.9849794 Z M159.127413,48.5747713 L155.767439,49.1410325 C149.180673,50.2268836 143.672675,50.8368434 138.252847,50.8515691 C133.613226,50.8641749 128.81945,50.389202 123.626999,49.5480966 L123.004515,49.4458531 L121.751713,49.2318373 L118.371413,48.6157713 L118.374988,48.6514888 L118.374988,48.6514888 L118.385332,48.7423095 C118.418103,49.0244597 118.456604,49.3048625 118.500714,49.5833985 C118.515562,49.6771642 118.531062,49.7708092 118.547195,49.8642377 C118.586514,50.0919295 118.62954,50.318103 118.676249,50.5429272 C118.726092,50.7828586 118.780195,51.021518 118.838421,51.2585569 C118.879481,51.4257253 118.922656,51.5923216 118.967859,51.7580814 C118.970984,51.7695401 118.974094,51.7809055 118.977214,51.792267 L118.967859,51.7580814 C119.026715,51.973906 119.089009,52.1883123 119.154678,52.401238 C119.159597,52.4171856 119.164355,52.4325465 119.169131,52.4478997 L119.154678,52.401238 C119.184178,52.4968885 119.214359,52.5922401 119.245216,52.6872873 C119.366469,53.0607438 119.497935,53.4289455 119.639456,53.7921188 C119.659799,53.8443267 119.680407,53.8965711 119.701223,53.9487101 L119.639456,53.7921188 C119.760511,54.1027744 119.888925,54.4097508 120.024481,54.7128338 C120.181472,55.0638655 120.348281,55.4101297 120.524363,55.7508235 C120.555733,55.8115211 120.587496,55.8722285 120.619553,55.9327561 L120.524363,55.7508235 C120.744072,56.1759288 120.978219,56.5923614 121.226156,56.9994728 C121.288805,57.1023362 121.352117,57.2042636 121.416294,57.3055895 C121.716966,57.7803039 122.03655,58.2417441 122.374029,58.6889214 C122.462123,58.8056567 122.551761,58.9218315 122.642609,59.0370082 C122.891729,59.3528404 123.149839,59.6610526 123.41664,59.9613714 C123.420115,59.9652835 123.423688,59.9693024 123.427263,59.9733199 L123.41664,59.9613714 C123.485364,60.0387293 123.554664,60.1155636 123.624535,60.1918673 C123.632977,60.2010872 123.641873,60.210784 123.650778,60.2204722 L123.624535,60.1918673 C123.838422,60.425447 124.057648,60.6540558 124.282022,60.8775002 C124.406966,61.0019186 124.533012,61.1242685 124.660609,61.2449964 C124.69973,61.2820118 124.738948,61.3188282 124.77831,61.3554915 L124.660609,61.2449964 C124.8144,61.3905091 124.970444,61.5336655 125.128683,61.6744077 C125.240224,61.7736151 125.352863,61.8716301 125.466573,61.9684253 C125.600603,62.0825204 125.736276,62.1950461 125.873406,62.3058397 C125.922985,62.3458961 125.9726,62.3856036 126.022403,62.4250846 L125.873406,62.3058397 C125.955661,62.372297 126.03844,62.4381312 126.121736,62.5033349 L126.022403,62.4250846 C126.101636,62.4878963 126.181345,62.5501345 126.261522,62.6117931 L126.121736,62.5033349 C126.217339,62.5781721 126.313623,62.652179 126.410577,62.7253446 L126.261522,62.6117931 C126.544508,62.8294166 126.833336,63.0398186 127.12773,63.2427232 C127.138053,63.2498381 127.148405,63.2569591 127.158764,63.2640709 L127.12773,63.2427232 C127.197921,63.2911013 127.26843,63.3390533 127.339251,63.3865752 C127.474425,63.4772761 127.610439,63.5662198 127.747562,63.6535783 C128.575526,64.1810364 129.443504,64.6505183 130.34618,65.0565776 C130.402513,65.081919 130.459093,65.107062 130.515806,65.1319557 L130.34618,65.0565776 C130.442018,65.0996895 130.538248,65.1420865 130.634862,65.1837618 L130.515806,65.1319557 C130.617106,65.1764198 130.718834,65.2200882 130.820982,65.2629532 L130.634862,65.1837618 C130.7398,65.2290279 130.845192,65.2734426 130.951028,65.3169971 L130.820982,65.2629532 C130.921552,65.3051558 131.022529,65.3465795 131.123907,65.3872169 L130.951028,65.3169971 C131.053565,65.3591938 131.156519,65.400583 131.259883,65.441157 L131.123907,65.3872169 C131.225836,65.4280752 131.328169,65.4681386 131.430899,65.5073993 L131.259883,65.441157 C131.35592,65.478855 131.452311,65.5158492 131.549048,65.5521333 L131.430899,65.5073993 C131.553558,65.5542765 131.676783,65.6000095 131.80056,65.6445852 L131.549048,65.5521333 C131.64832,65.5893679 131.747958,65.6258547 131.847954,65.6615868 L131.80056,65.6445852 C131.893061,65.6778975 131.985871,65.7105635 132.078984,65.7425777 L131.847954,65.6615868 C131.957571,65.7007569 132.067619,65.73902 132.17809,65.7763672 L132.078984,65.7425777 C132.275366,65.8100976 132.473095,65.8747183 132.672122,65.9363886 C132.740279,65.957509 132.808972,65.9783981 132.877816,65.9989352 L132.672122,65.9363886 C132.781579,65.9703048 132.891428,66.0033285 133.001661,66.0354515 L132.877816,65.9989352 C132.957602,66.0227361 133.037592,66.0460642 133.117782,66.0689164 L133.001661,66.0354515 C133.115976,66.0687641 133.230704,66.1011078 133.345835,66.1324733 L133.117782,66.0689164 C133.233272,66.1018283 133.349179,66.133753 133.465492,66.1646806 L133.345835,66.1324733 C133.461972,66.1641127 133.578519,66.1947566 133.695467,66.2243953 L133.695528,66.2244107 L133.734413,66.2329272 L136.999413,66.7769272 C137.462499,66.8172036 137.930066,66.8409173 138.401504,66.848717 L138.747413,66.8515765 C138.911498,66.8515765 139.075132,66.8496487 139.238295,66.8458145 C139.430547,66.8412964 139.6221,66.8341339 139.812962,66.8243609 C139.829318,66.8235234 139.845657,66.8226673 139.861991,66.8217922 L139.812962,66.8243609 C139.921899,66.8187828 140.030611,66.8123544 140.139092,66.805082 L139.861991,66.8217922 C140.149349,66.8063958 140.435134,66.7850816 140.719229,66.7579693 C140.756877,66.7543765 140.794585,66.7506729 140.832263,66.7468672 L140.719229,66.7579693 C140.957906,66.7351913 141.195389,66.7083209 141.431608,66.6774289 C141.451681,66.6748033 141.471286,66.6722102 141.490882,66.6695894 L141.431608,66.6774289 C141.543367,66.6628134 141.654843,66.6472977 141.766029,66.6308894 L141.490882,66.6695894 C141.601561,66.6547867 141.711961,66.6391008 141.822074,66.6225391 L141.766029,66.6308894 C141.862926,66.6165897 141.959602,66.6016121 142.056052,66.5859614 L141.822074,66.6225391 C141.942666,66.6044014 142.062914,66.5852132 142.182809,66.5649841 L142.056052,66.5859614 C142.165012,66.568281 142.273683,66.5497417 142.38206,66.5303506 L142.182809,66.5649841 C142.298279,66.5455015 142.413421,66.5250535 142.528227,66.5036486 L142.38206,66.5303506 C142.489748,66.5110827 142.597144,66.4909739 142.704242,66.4700312 L142.528227,66.5036486 C142.634818,66.4837754 142.741118,66.4630774 142.847121,66.4415615 L142.704242,66.4700312 C142.81342,66.4486818 142.922288,66.4264659 143.030838,66.4033907 L142.847121,66.4415615 C142.970709,66.4164764 143.093893,66.3902796 143.216662,66.3629818 L143.030838,66.4033907 C143.12813,66.3827087 143.225167,66.3613365 143.321944,66.3392795 L143.216662,66.3629818 C143.32345,66.3392373 143.429925,66.3146598 143.53608,66.2892566 L143.321944,66.3392795 C143.453579,66.3092775 143.584733,66.2780085 143.715391,66.245486 L143.53608,66.2892566 C143.634282,66.2657562 143.73221,66.2415491 143.829857,66.216641 L143.715391,66.245486 C143.808899,66.2222107 143.902153,66.1982933 143.995148,66.1737389 L143.829857,66.216641 C143.952289,66.185411 144.07428,66.1530789 144.195819,66.1196559 L143.995148,66.1737389 C144.12031,66.1406912 144.245004,66.1064894 144.369217,66.0711456 L144.195819,66.1196559 C144.280425,66.0963894 144.364813,66.0725944 144.448977,66.0482745 L144.369217,66.0711456 C144.468363,66.0429342 144.567203,66.0139953 144.665731,65.984335 L144.448977,66.0482745 C144.572729,66.0125154 144.696,65.9756217 144.818777,65.9376053 L144.665731,65.984335 C144.779459,65.9500987 144.892771,65.9149013 145.005657,65.8787521 L144.818777,65.9376053 C144.922202,65.905581 145.025277,65.87276 145.127994,65.8391496 L145.005657,65.8787521 C145.102984,65.8475854 145.199994,65.8157113 145.296682,65.7831358 L145.127994,65.8391496 C145.237127,65.80344 145.345857,65.7668392 145.454174,65.7293558 L145.296682,65.7831358 C145.40864,65.7454154 145.520165,65.7067546 145.631249,65.6671626 L145.454174,65.7293558 C145.54073,65.6994031 145.627022,65.6688868 145.713048,65.6378113 L145.631249,65.6671626 C145.73749,65.6292965 145.843328,65.5905788 145.948753,65.5510176 L145.713048,65.6378113 C145.93767,65.5566693 146.160469,65.4717148 146.381367,65.3830259 L146.245835,65.4368782 C146.343808,65.3983553 146.441412,65.3590998 146.538642,65.3191184 L146.381367,65.3830259 C146.483879,65.341868 146.585981,65.2999058 146.687666,65.2571472 L146.538642,65.3191184 C146.853092,65.1898144 147.163619,65.0529183 147.469995,64.9086583 L147.739598,64.7792915 C147.795908,64.7517623 147.852073,64.7239827 147.908092,64.695954 C147.972714,64.6636201 148.03701,64.6310221 148.101111,64.5980962 C148.667498,64.3071622 149.218502,63.9906781 149.752674,63.6501312 C149.881942,63.5677134 150.009618,63.4842922 150.136296,63.3994966 C150.285494,63.2996259 150.433223,63.1979081 150.579535,63.0943207 C150.609932,63.072802 150.640972,63.0506984 150.671947,63.0285106 L150.579535,63.0943207 C150.671713,63.0290602 150.763327,62.9630576 150.854371,62.8963217 L150.671947,63.0285106 C150.857042,62.8959264 151.039837,62.7603372 151.220263,62.6218144 C151.270951,62.582899 151.321601,62.5436357 151.37206,62.5041411 L151.220263,62.6218144 C151.304814,62.5568999 151.388844,62.4913412 151.472347,62.4251456 L151.37206,62.5041411 C151.455534,62.4388071 151.538488,62.3728401 151.620916,62.3062474 L151.472347,62.4251456 C151.741495,62.2117814 152.00516,61.9918004 152.263095,61.7654483 C152.298197,61.7346443 152.333197,61.7037185 152.368091,61.6726753 L152.263095,61.7654483 C152.33999,61.6979685 152.416377,61.6299224 152.492247,61.5613166 L152.368091,61.6726753 C152.456598,61.5939347 152.544418,61.5144387 152.631541,61.4341975 L152.492247,61.5613166 C152.559673,61.5003466 152.626692,61.4389346 152.693299,61.3770851 L152.631541,61.4341975 C152.719558,61.3531334 152.806863,61.2713087 152.893446,61.1887339 L152.693299,61.3770851 C152.778361,61.2980982 152.862751,61.2183979 152.946461,61.1379935 L152.893446,61.1887339 C152.947671,61.1370193 153.001614,61.0850104 153.05527,61.0327098 L152.946461,61.1379935 C153.110049,60.9808638 153.271036,60.8210454 153.429349,60.6586095 C153.461353,60.6257711 153.492933,60.5931527 153.524405,60.56043 L153.429349,60.6586095 C153.579833,60.5042075 153.727902,60.3474405 153.873494,60.1883695 C154.13194,59.9060012 154.382679,59.6162566 154.625268,59.319588 C154.732737,59.1881647 154.838753,59.0551941 154.943135,58.9208906 L155.120975,58.6886862 C155.458363,58.241617 155.777864,57.7802924 156.078415,57.3057762 C156.148757,57.194715 156.217947,57.0831203 156.286089,56.970819 C156.404229,56.7761108 156.519088,56.5795109 156.630733,56.3808624 C156.747494,56.1731154 156.860828,55.9629573 156.970561,55.7506359 C157.1457,55.4117467 157.311548,55.0676034 157.467907,54.7182849 C157.4902,54.6684838 157.512543,54.6180236 157.534688,54.5674567 L157.467907,54.7182849 C157.511306,54.6213279 157.553974,54.5239722 157.595903,54.4262248 L157.534688,54.5674567 C157.798308,53.9654912 158.033844,53.3484254 158.23964,52.7179165 C158.268769,52.6286723 158.297259,52.5392962 158.32515,52.4496563 L158.23964,52.7179165 C158.276726,52.6042943 158.312847,52.4902355 158.347991,52.3757498 L158.32515,52.4496563 C158.392591,52.2329048 158.456532,52.0146109 158.516906,51.7948405 C158.551972,51.6671804 158.58569,51.5395952 158.618201,51.411529 C158.634229,51.3483925 158.649891,51.285433 158.665262,51.2223592 L158.618201,51.411529 C158.691125,51.1242771 158.757984,50.8346057 158.818634,50.542659 C158.865333,50.3178436 158.908279,50.0920876 158.947491,49.865053 C158.960329,49.7907065 158.972634,49.7170411 158.984545,49.6432438 C159.032599,49.3455944 159.074343,49.0449572 159.109495,48.7423095 L159.127413,48.5747713 Z M138.747413,39.0317713 C138.460773,39.0317713 138.17579,39.0337671 137.892556,39.037721 L137.048199,39.0554197 C136.628738,39.0671685 136.213423,39.0832385 135.802569,39.1035026 L134.986899,39.1495851 C134.717054,39.1667848 134.449283,39.185811 134.183681,39.2066259 L133.393471,39.274399 L132.616827,39.3526786 L132.484413,39.3659272 L129.82529,44.6442743 C129.594437,45.102213 129.059457,45.3058634 128.589353,45.1335687 L128.482188,45.0870794 C128.024249,44.8562271 127.820598,44.3212462 127.992893,43.8511429 L128.039382,43.7439772 L130.078413,39.6959272 L129.657063,39.7663439 L128.956613,39.8937675 L128.273074,40.0303422 L127.607004,40.1758421 C127.168905,40.2757669 126.742823,40.3814913 126.329502,40.4927141 L125.719185,40.6636344 L125.128567,40.8425763 L124.558206,41.0293141 C123.531454,41.3786746 122.609641,41.7662 121.808228,42.1856265 L121.383128,42.4175306 C119.387086,43.5533282 118.247413,44.9029356 118.247413,46.3515765 L118.248413,46.5609272 L118.330936,46.5753502 L121.230668,47.1081392 L122.61041,47.3507906 L123.805559,47.5508751 L125.402212,47.8011726 L126.409739,47.9481335 L127.45081,48.0903987 L128.522475,48.2261009 L129.252457,48.3120007 L130.368551,48.4326146 L131.12542,48.5067264 L131.891514,48.5751547 L132.665958,48.6373461 C132.795679,48.6471609 132.925712,48.6566927 133.056038,48.6659301 L134.236398,48.7408053 L135.030646,48.7809663 C135.163449,48.786971 135.296454,48.7926236 135.429644,48.7979127 L136.230841,48.8251911 L137.03558,48.8431894 L137.842985,48.8513544 L138.247413,48.8515765 L138.247413,48.8515765 C142.078367,48.8411678 145.95409,48.493314 149.40432,48.0573675 L150.603614,47.9002522 L151.762979,47.7382574 L152.877821,47.5738193 L154.456549,47.3279101 L155.43998,47.168022 L159.246681,46.526701 C159.247169,46.4683839 159.247413,46.4100087 159.247413,46.3515765 C159.247413,44.9029356 158.107741,43.5533282 156.111699,42.4175306 L155.686598,42.1856265 C154.885186,41.7662 153.963373,41.3786746 152.936621,41.0293141 L152.36626,40.8425763 L151.775642,40.6636344 L151.165325,40.4927141 C150.89948,40.4211765 150.628356,40.3519135 150.352151,40.2850053 L152.41406,43.6743563 C152.70112,44.1461768 152.551343,44.7613716 152.079523,45.0484323 C151.641404,45.3149887 151.079661,45.2048837 150.77181,44.8100285 L150.705447,44.7138952 L147.679413,39.7399272 L147.12096,39.6482973 L146.38836,39.5398536 C146.264974,39.5225925 146.140954,39.5057409 146.01631,39.4893035 L145.261061,39.3956877 C145.13397,39.3809261 145.006279,39.3665882 144.878,39.3526786 L144.101356,39.274399 L143.311146,39.2066259 C143.045544,39.185811 142.777773,39.1667848 142.507927,39.1495851 L141.692258,39.1035026 C141.281403,39.0832385 140.866089,39.0671685 140.446628,39.0554197 L139.60227,39.037721 C139.460654,39.0357441 139.318599,39.0342566 139.176119,39.0332635 L138.747413,39.0317713 Z M139.267181,25.9138444 L133.548311,37.2565354 C137.763406,36.8860828 142.23603,36.9735608 146.3295,37.5189694 L139.267181,25.9138444 Z" id="Combined-Shape" transform="translate(138.747413, 51.337511) rotate(-45.000000) translate(-138.747413, -51.337511) "></path>
                </g>
            </g>
        </g>
    </g>
</svg>