<?xml version="1.0" encoding="UTF-8"?>
<svg width="37px" height="60px" viewBox="0 0 37 60" version="1.1" xmlns="http://www.w3.org/2000/svg" xmlns:xlink="http://www.w3.org/1999/xlink">
    <title>BFF9EF22-4F25-4DED-ACE9-01AEB15CC103</title>
    <g id="Page" stroke="none" stroke-width="1" fill="none" fill-rule="evenodd">
        <g id="01.01.01_Homepage_D" transform="translate(-352.000000, -726.000000)" fill="#FFE000" fill-rule="nonzero">
            <g id="Banner" transform="translate(230.000000, 704.000000)">
                <path d="M141.255715,44.0416306 C141.716959,44.0416306 142.118367,44.3571036 142.227383,44.805279 L150.740896,79.805279 C150.87143,80.3419162 150.542218,80.8827648 150.00558,81.0132982 C149.928206,81.0321191 149.84886,81.0416306 149.769229,81.0416306 L130.314032,81.0416306 C129.761748,81.0416306 129.314032,80.5939153 129.314032,80.0416306 C129.314032,79.9619996 129.323544,79.8826538 129.342365,79.805279 L133.096119,64.3679154 C132.975573,64.0177614 133.055041,63.6140061 133.334524,63.3345238 L133.352631,63.3178153 L137.855878,44.805279 C137.964894,44.3571036 138.366302,44.0416306 138.827546,44.0416306 L141.255715,44.0416306 Z M139.755631,71.1698153 L132.409631,79.0408153 L147.626631,79.0408153 L139.755631,71.1698153 Z M145.170631,65.3688153 L141.121631,69.7068153 L147.865631,76.4508153 L145.170631,65.3688153 Z M134.723631,66.1378153 L132.259631,76.2698153 L138.340631,69.7548153 L134.723631,66.1378153 Z M140.040631,56.9108153 L136.800887,60.6924219 C136.585328,60.9439081 136.271977,61.0620351 135.965211,61.038774 L135.277631,63.8628153 L139.705631,68.2908153 L144.310575,63.3593123 C144.403021,63.2602633 144.510871,63.1842 144.626964,63.1313693 L144.117049,61.0388494 C143.849951,61.0588341 143.577947,60.9716483 143.369924,60.7825909 L143.282374,60.6924219 L140.040631,56.9108153 Z M137.647631,54.1188153 L136.794631,57.6258153 L138.723631,55.3748153 L137.647631,54.1188153 Z M142.434631,54.1188153 L141.358631,55.3748153 L143.287631,57.6258153 L142.434631,54.1188153 Z M140.47,46.041 L139.613,46.041 L138.152211,52.0477598 C138.356184,52.0704109 138.553619,52.1555138 138.713338,52.3006702 L138.800887,52.3908392 L140.041631,53.8378153 L141.282374,52.3908392 C141.454119,52.1904703 141.68794,52.0747569 141.93105,52.0477598 L140.47,46.041 Z M128.727922,22.3137085 C129.118446,22.7042328 129.118446,23.3373978 128.727922,23.7279221 C122.479533,29.9763107 122.479533,40.1069504 128.727922,46.3553391 C129.118446,46.7458634 129.118446,47.3790283 128.727922,47.7695526 C128.337398,48.1600769 127.704233,48.1600769 127.313708,47.7695526 C120.284271,40.7401154 120.284271,29.3431458 127.313708,22.3137085 C127.704233,21.9231842 128.337398,21.9231842 128.727922,22.3137085 Z M152.769553,22.3137085 C159.79899,29.3431458 159.79899,40.7401154 152.769553,47.7695526 C152.379028,48.1600769 151.745863,48.1600769 151.355339,47.7695526 C150.964815,47.3790283 150.964815,46.7458634 151.355339,46.3553391 C157.603728,40.1069504 157.603728,29.9763107 151.355339,23.7279221 C150.964815,23.3373978 150.964815,22.7042328 151.355339,22.3137085 C151.745863,21.9231842 152.379028,21.9231842 152.769553,22.3137085 Z M133.67767,27.263456 C134.068194,27.6539803 134.068194,28.2871452 133.67767,28.6776695 C130.162951,32.1923882 130.162951,37.890873 133.67767,41.4055916 C134.068194,41.7961159 134.068194,42.4292809 133.67767,42.8198052 C133.287145,43.2103294 132.65398,43.2103294 132.263456,42.8198052 C127.967689,38.5240379 127.967689,31.5592232 132.263456,27.263456 C132.65398,26.8729317 133.287145,26.8729317 133.67767,27.263456 Z M147.819805,27.263456 C152.115572,31.5592232 152.115572,38.5240379 147.819805,42.8198052 C147.429281,43.2103294 146.796116,43.2103294 146.405592,42.8198052 C146.015067,42.4292809 146.015067,41.7961159 146.405592,41.4055916 C149.92031,37.890873 149.92031,32.1923882 146.405592,28.6776695 C146.015067,28.2871452 146.015067,27.6539803 146.405592,27.263456 C146.796116,26.8729317 147.429281,26.8729317 147.819805,27.263456 Z M140.041631,31.0416306 C142.25077,31.0416306 144.041631,32.8324916 144.041631,35.0416306 C144.041631,37.2507696 142.25077,39.0416306 140.041631,39.0416306 C137.832492,39.0416306 136.041631,37.2507696 136.041631,35.0416306 C136.041631,32.8324916 137.832492,31.0416306 140.041631,31.0416306 Z" id="Combined-Shape"></path>
            </g>
        </g>
    </g>
</svg>