<?xml version="1.0" encoding="UTF-8"?>
<svg width="52px" height="48px" viewBox="0 0 52 48" version="1.1" xmlns="http://www.w3.org/2000/svg" xmlns:xlink="http://www.w3.org/1999/xlink">
    <title>16F8F55D-EE4E-411D-99E3-0B5EA7BC4FAB</title>
    <g id="Page" stroke="none" stroke-width="1" fill="none" fill-rule="evenodd">
        <g id="01.01.01_Homepage_D" transform="translate(-694.000000, -732.000000)" fill="#FFE000" fill-rule="nonzero">
            <g id="Group-10" transform="translate(230.000000, 704.000000)">
                <g id="Banner" transform="translate(350.000000, 0.000000)">
                    <path d="M148.087323,28.7394894 L149.501536,30.1537029 L140.687,38.9674894 L157,38.9675144 C161.970563,38.9675144 166,42.9969517 166,47.9675144 L166,66.9675144 C166,71.9380772 161.970563,75.9675144 157,75.9675144 L123,75.9675144 C118.029437,75.9675144 114,71.9380772 114,66.9675144 L114,47.9675144 C114,42.9969517 118.029437,38.9675144 123,38.9675144 L137.593,38.9674894 L128.779917,30.1537029 L130.19413,28.7394894 L139.139716,37.6858209 L148.087323,28.7394894 Z M157,40.9675144 L123,40.9675144 C119.214548,40.9675144 116.130901,43.9722978 116.004059,47.7268647 L116,47.9675144 L116,66.9675144 C116,70.7529661 119.004783,73.8366131 122.75935,73.9634554 L123,73.9675144 L157,73.9675144 C160.785452,73.9675144 163.869099,70.962731 163.995941,67.2081642 L164,66.9675144 L164,47.9675144 C164,44.1820627 160.995217,41.0984157 157.24065,40.9715734 L157,40.9675144 Z M134.454601,51.4359803 L144.109223,61.0899617 L153.0549,52.1430871 L154.469114,53.5573007 L144.108304,63.9181104 L134.455094,54.2642599 L125.508005,63.2110036 L124.093792,61.79679 L134.454601,51.4359803 Z" id="Combined-Shape"></path>
                </g>
            </g>
        </g>
    </g>
</svg>